# xmcd
#
# Track frame offsets:
#	150
#	37961
#	57624
#	75587
#	95153
#	112847
#	126509
#	142303
#	158178
#	174445
#	185193
#	202523
#	219529
#	241780
#	256804
#	280037
#	300464
#	312679
#	327638
#	343245
#
# Disc length: 4729 seconds
#
# Revision: 1
# Processed by: cddbd v1.5.2PL0 Copyright (c) Steve Scherf et al.
# Submitted via: audiograbber 1.83.01
#
DISCID=2e127714
DTITLE=Various Artist - The World's Best Ever Beer Songs 10th Anniversary CD3
DYEAR=1900
DGENRE=Pub Anthems
TTITLE0=Meat Loaf - Paradise By The Dashboard Light
TTITLE1=Thin Lizzy - The Boys Are Back In Town
TTITLE2=Sweet - Ballroom Blitz
TTITLE3=Heart - Barracuda
TTITLE4=Ram Jam - Black Betty
TTITLE5=Rose Tattoo - Bad Boys For Love
TTITLE6=Twisted Sister - We're Not Gonna Take It
TTITLE7=Primal Scream - Rocks
TTITLE8=Reef - Place Your Hands
TTITLE9=Violent Femmes - Blister In The Sun
TTITLE10=The Living End - Prisoner Of Society
TTITLE11=Hoodoo Gurus - What's My Schene
TTITLE12=James Reyne - Fall Of Rome
TTITLE13=Paul Kelly and The Coloured Girls - Before Too Long
TTITLE14=Rod Stewart - Maggie May
TTITLE15=The Band - The Weight
TTITLE16=Johnny Cash - I Walk The Line
TTITLE17=John Denver - Thank God I'm A Country Boy
TTITLE18=Kenny Rogers - The Gambler
TTITLE19=Slim Disty - Duncan
EXTD=
EXTT0=
EXTT1=
EXTT2=
EXTT3=
EXTT4=
EXTT5=
EXTT6=
EXTT7=
EXTT8=
EXTT9=
EXTT10=
EXTT11=
EXTT12=
EXTT13=
EXTT14=
EXTT15=
EXTT16=
EXTT17=
EXTT18=
EXTT19=
PLAYORDER=
